<svg width="32" height="32" viewBox="0 0 32 32" fill="none" xmlns="http://www.w3.org/2000/svg">
<circle cx="16" cy="16" r="16" fill="#10F50C"/>
<g clip-path="url(#clip0)">
<path d="M24.3952 19.1277C23.1707 19.1277 21.9684 18.9362 20.8291 18.5597C20.2708 18.3693 19.5845 18.544 19.2438 18.8939L16.995 20.5915C14.387 19.1994 12.7806 17.5934 11.4074 15.0051L13.0551 12.8148C13.4832 12.3873 13.6367 11.7629 13.4528 11.1769C13.0746 10.0316 12.8826 8.8299 12.8826 7.6049C12.8826 6.71995 12.1627 6 11.2778 6H7.60484C6.71995 6 6 6.71995 6 7.60484C6 17.7481 14.252 26 24.3952 26C25.2801 26 26.0001 25.2801 26.0001 24.3952V20.7325C26 19.8477 25.2801 19.1277 24.3952 19.1277Z" fill="white"/>
</g>
<defs>
<clipPath id="clip0">
<rect x="6" y="6" width="20" height="20" rx="5" fill="white"/>
</clipPath>
</defs>
</svg>